<svg xmlns="http://www.w3.org/2000/svg" viewBox="0 0 100 100">
  <defs>
    <linearGradient id="grad1" x1="0%" y1="0%" x2="100%" y2="100%">
      <stop offset="0%" style="stop-color:#6366f1;stop-opacity:1" />
      <stop offset="100%" style="stop-color:#8b5cf6;stop-opacity:1" />
    </linearGradient>
  </defs>
  
  <!-- Background circle -->
  <circle cx="50" cy="50" r="48" fill="url(#grad1)"/>
  
  <!-- Three people icons representing a standup meeting -->
  <!-- Person 1 (left) -->
  <circle cx="30" cy="42" r="8" fill="white" opacity="0.9"/>
  <path d="M 22 52 Q 22 48 30 48 Q 38 48 38 52 L 38 62 Q 38 64 36 64 L 24 64 Q 22 64 22 62 Z" fill="white" opacity="0.9"/>
  
  <!-- Person 2 (center - slightly larger/front) -->
  <circle cx="50" cy="38" r="10" fill="white"/>
  <path d="M 40 50 Q 40 45 50 45 Q 60 45 60 50 L 60 64 Q 60 66 58 66 L 42 66 Q 40 66 40 64 Z" fill="white"/>
  
  <!-- Person 3 (right) -->
  <circle cx="70" cy="42" r="8" fill="white" opacity="0.9"/>
  <path d="M 62 52 Q 62 48 70 48 Q 78 48 78 52 L 78 62 Q 78 64 76 64 L 64 64 Q 62 64 62 62 Z" fill="white" opacity="0.9"/>
  
  <!-- Chat bubble/communication icon -->
  <path d="M 72 22 L 88 22 Q 90 22 90 24 L 90 32 Q 90 34 88 34 L 82 34 L 80 38 L 78 34 L 72 34 Q 70 34 70 32 L 70 24 Q 70 22 72 22 Z" fill="white" opacity="0.95"/>
  <circle cx="76" cy="28" r="1.5" fill="url(#grad1)"/>
  <circle cx="81" cy="28" r="1.5" fill="url(#grad1)"/>
  <circle cx="86" cy="28" r="1.5" fill="url(#grad1)"/>
</svg>

